<?xml version="1.0" encoding="utf-8"?>
<!-- Generator: Adobe Illustrator 28.2.0, SVG Export Plug-In . SVG Version: 6.00 Build 0)  -->
<svg version="1.1" id="Layer_1" xmlns="http://www.w3.org/2000/svg" xmlns:xlink="http://www.w3.org/1999/xlink" x="0px" y="0px"
	 viewBox="0 0 16 16" style="enable-background:new 0 0 16 16;" xml:space="preserve">
<style type="text/css">
	.st0{fill:#0000FF;}
</style>
<path class="st0" d="M12.1,0.5H4c-1.9,0-3.4,1.5-3.4,3.4V12c0,0.3,0.1,0.6,0.1,0.9c0.2,0.5,0.8,0.7,1.1,0.3l7.7-7.7H4.9
	c-0.4,0-0.7-0.3-0.7-0.6c0-0.4,0.3-0.7,0.7-0.7h6.1c0.4,0,0.7,0.3,0.7,0.7v6.1c-0.1,0.4-0.4,0.7-0.7,0.7c-0.3-0.1-0.6-0.3-0.6-0.7
	V6.4l-7.8,7.8c-0.4,0.4-0.2,1,0.3,1.1c0.3,0.1,0.7,0.2,1,0.2H12c1.9,0,3.4-1.5,3.4-3.4V3.9C15.5,2.1,13.9,0.5,12.1,0.5z"/>
</svg>
