<?xml version="1.0" encoding="utf-8"?>
<!-- Generator: Adobe Illustrator 28.0.0, SVG Export Plug-In . SVG Version: 6.00 Build 0)  -->
<svg version="1.1" id="Layer_1" xmlns="http://www.w3.org/2000/svg" xmlns:xlink="http://www.w3.org/1999/xlink" x="0px" y="0px"
	 viewBox="0 0 267.1 43.2" style="enable-background:new 0 0 267.1 43.2;" xml:space="preserve">
<style type="text/css">
	.st0{fill:#0000FF;}
</style>
<g>
	<g>
		<g>
			<g>
				<path class="st0" d="M20.4,35.4c-0.8,0-1.3-0.5-1.3-1.3V23H8c-0.8,0-1.3-0.5-1.3-1.3s0.5-1.3,1.3-1.3h12.4
					c0.8,0,1.3,0.5,1.3,1.3v12.4C21.6,34.9,21.1,35.4,20.4,35.4z"/>
			</g>
			<g>
				<path class="st0" d="M8.2,35.1c-0.3,0-0.8,0-1-0.3c-0.5-0.5-0.5-1.3,0-1.8l12.1-12.1c0.5-0.5,1.3-0.5,1.8,0s0.5,1.3,0,1.8
					L9,34.9C8.7,35.1,8.5,35.1,8.2,35.1z"/>
			</g>
		</g>
		<g>
			<g>
				<path class="st0" d="M43.3,23H31c-0.8,0-1.3-0.5-1.3-1.3V9.4c0-0.8,0.5-1.3,1.3-1.3s1.3,0.5,1.3,1.3v11.1h11.1
					c0.8,0,1.3,0.5,1.3,1.3C44.6,22.5,44.1,23,43.3,23z"/>
			</g>
			<g>
				<path class="st0" d="M31,23c-0.3,0-0.8,0-1-0.3c-0.5-0.5-0.5-1.3,0-1.8L42.1,8.8c0.5-0.5,1.3-0.5,1.8,0s0.5,1.3,0,1.8L31.7,22.8
					C31.7,23,31.2,23,31,23z"/>
			</g>
		</g>
		<g>
			<path class="st0" d="M20.4,14.7c-0.8,0-1.3-0.5-1.3-1.3V1.6c0-0.8,0.5-1.3,1.3-1.3s1.3,0.5,1.3,1.3v11.9
				C21.6,14.2,21.1,14.7,20.4,14.7z"/>
		</g>
		<g>
			<path class="st0" d="M31,43.2c-0.8,0-1.3-0.5-1.3-1.3V30.1c0-0.8,0.5-1.3,1.3-1.3s1.3,0.5,1.3,1.3V42
				C32.2,42.7,31.7,43.2,31,43.2z"/>
		</g>
	</g>
	<g>
		<path class="st0" d="M62.7,33.4H59V9.7h3.7V33.4z M61,30.3h12.5v3.2H61V30.3z"/>
		<path class="st0" d="M84.5,33.4V9.7h3.7v23.8L84.5,33.4L84.5,33.4z M85.5,12.8V9.7h14v3.1H85.5z M85.6,33.4v-3.1h14.2v3.1H85.6z
			 M86.6,22.9v-3.1h12.7v3.1H86.6z"/>
		<path class="st0" d="M117.1,9.7l8.8,19.7h0.2L126,19.1V9.7h3.6v23.8h-5.4l-8.9-19.9H115l0.1,10.7v9.2h-3.6V9.7H117.1z"/>
		<path class="st0" d="M142.3,33.4V9.7h3.7v23.8L142.3,33.4L142.3,33.4z M144.8,33.4v-3.1h5.6c2,0,3.4-0.5,4.4-1.6s1.5-2.6,1.5-4.6
			v-5.2c0-2-0.5-3.5-1.5-4.6s-2.5-1.6-4.4-1.6h-5.7V9.6h5.8c3.1,0,5.5,0.8,7.1,2.4s2.4,3.9,2.4,6.9v5.2c0,3-0.8,5.3-2.4,6.9
			c-1.6,1.6-4,2.4-7.1,2.4C150.5,33.4,144.8,33.4,144.8,33.4z"/>
		<path class="st0" d="M171.9,33.4V9.7h3.7v23.8L171.9,33.4L171.9,33.4z M173,12.8V9.7h14v3.1H173z M173,33.4v-3.1h14.2v3.1H173z
			 M174.1,22.9v-3.1h12.7v3.1H174.1z"/>
		<path class="st0" d="M205.8,33.9c-1.1,0-2.2-0.1-3.1-0.3c-1-0.2-1.8-0.4-2.6-0.7c-0.8-0.3-1.4-0.5-1.9-0.8l-0.4-3.7
			c1,0.5,2.1,1,3.4,1.5c1.3,0.4,2.7,0.6,4.2,0.6c1.7,0,3-0.3,3.8-0.9c0.8-0.6,1.2-1.4,1.2-2.6v-0.3c0-0.8-0.2-1.4-0.5-1.9
			s-0.9-0.9-1.7-1.3c-0.8-0.4-1.8-0.7-3.2-1c-1.8-0.4-3.2-0.9-4.3-1.5s-1.9-1.3-2.4-2.2c-0.5-0.9-0.7-2-0.7-3.3v-0.2
			c0-2,0.7-3.5,2-4.6s3.3-1.6,6-1.6c1.7,0,3.2,0.2,4.4,0.5s2.2,0.7,3,1.1l0.3,3.4c-0.9-0.5-1.9-1-3.1-1.3c-1.2-0.4-2.5-0.5-4-0.5
			c-1.2,0-2.1,0.1-2.8,0.4s-1.2,0.6-1.5,1.1s-0.5,1.1-0.5,1.7v0.1c0,0.7,0.2,1.3,0.5,1.8s0.9,0.9,1.6,1.3c0.8,0.4,1.9,0.8,3.4,1.1
			c1.7,0.4,3.1,0.9,4.2,1.5c1.1,0.5,1.8,1.2,2.3,2.1c0.5,0.9,0.7,2,0.7,3.4v0.4c0,2.2-0.7,3.9-2.1,5
			C210.8,33.3,208.6,33.9,205.8,33.9z"/>
		<path class="st0" d="M223.8,12.8V9.7h17.7v3.1H223.8z M230.8,33.4V10.3h3.7v23.1C234.5,33.4,230.8,33.4,230.8,33.4z"/>
	</g>
	<g>
		<path class="st0" d="M247.4,0.9V0h5.2v0.9H247.4z M249.5,7V0.2h1.1V7H249.5z"/>
		<path class="st0" d="M253.5,7l0.3-7h1.7l1.5,4.8h0.1l1.5-4.8h1.7l0.3,7h-1.1l-0.1-2.8l-0.1-3h-0.1l-1.6,5h-1.1l-1.6-5h-0.1l-0.1,3
			L254.6,7C254.6,7,253.5,7,253.5,7z"/>
	</g>
</g>
</svg>
