<?xml version="1.0" encoding="utf-8"?>
<!-- Generator: Adobe Illustrator 28.0.0, SVG Export Plug-In . SVG Version: 6.00 Build 0)  -->
<svg version="1.1" id="Layer_1" xmlns="http://www.w3.org/2000/svg" xmlns:xlink="http://www.w3.org/1999/xlink" x="0px" y="0px"
	 viewBox="0 0 16 16" style="enable-background:new 0 0 16 16;" xml:space="preserve">
<style type="text/css">
	.st0{fill:#0000FF;}
</style>
<g>
	<g>
		<path class="st0" d="M5.9,13.4c-0.3,0-0.5-0.2-0.5-0.5V8.5H1C0.7,8.5,0.5,8.3,0.5,8S0.7,7.5,1,7.5h4.9c0.3,0,0.5,0.2,0.5,0.5v4.9
			C6.4,13.2,6.2,13.4,5.9,13.4z"/>
	</g>
	<g>
		<path class="st0" d="M1.1,13.3c-0.1,0-0.3,0-0.4-0.1c-0.2-0.2-0.2-0.5,0-0.7l4.8-4.8c0.2-0.2,0.5-0.2,0.7,0s0.2,0.5,0,0.7
			l-4.8,4.8C1.3,13.3,1.2,13.3,1.1,13.3z"/>
	</g>
</g>
<g>
	<g>
		<path class="st0" d="M15,8.5h-4.9C9.8,8.5,9.6,8.3,9.6,8V3.1c0-0.3,0.2-0.5,0.5-0.5s0.5,0.2,0.5,0.5v4.4H15c0.3,0,0.5,0.2,0.5,0.5
			S15.3,8.5,15,8.5z"/>
	</g>
	<g>
		<path class="st0" d="M10.1,8.5c-0.1,0-0.3,0-0.4-0.1c-0.2-0.2-0.2-0.5,0-0.7l4.8-4.8c0.2-0.2,0.5-0.2,0.7,0s0.2,0.5,0,0.7
			l-4.8,4.8C10.4,8.5,10.2,8.5,10.1,8.5z"/>
	</g>
</g>
<g>
	<path class="st0" d="M5.9,5.2C5.6,5.2,5.4,5,5.4,4.7V0c0-0.3,0.2-0.5,0.5-0.5S6.4-0.3,6.4,0v4.7C6.4,5,6.2,5.2,5.9,5.2z"/>
</g>
<g>
	<path class="st0" d="M10.1,16.5c-0.3,0-0.5-0.2-0.5-0.5v-4.7c0-0.3,0.2-0.5,0.5-0.5s0.5,0.2,0.5,0.5V16
		C10.6,16.3,10.4,16.5,10.1,16.5z"/>
</g>
</svg>
