<?xml version="1.0" encoding="utf-8"?>
<!-- Generator: Adobe Illustrator 28.2.0, SVG Export Plug-In . SVG Version: 6.00 Build 0)  -->
<svg version="1.1" id="Layer_1" xmlns="http://www.w3.org/2000/svg" xmlns:xlink="http://www.w3.org/1999/xlink" x="0px" y="0px"
	 viewBox="0 0 136 43.2" style="enable-background:new 0 0 136 43.2;" xml:space="preserve">
<style type="text/css">
	.st0{fill:#0000FF;}
</style>
<path class="st0" d="M33.6,6.8H17.5c-3.7,0-6.7,3-6.7,6.7v16.1c0,0.6,0.1,1.2,0.2,1.8c0.3,1,1.5,1.3,2.2,0.6l15.3-15.3l-9.1,0
	c-0.7,0-1.3-0.5-1.3-1.2c0-0.8,0.5-1.3,1.3-1.3h12.2c0.7,0,1.3,0.6,1.3,1.3v12.2c-0.1,0.8-0.7,1.4-1.4,1.3c-0.6-0.1-1.1-0.6-1.1-1.3
	l0-9.2L15,33.9c-0.7,0.7-0.4,1.9,0.5,2.2c0.6,0.2,1.3,0.3,1.9,0.3h16.1c3.7,0,6.7-3,6.7-6.7V13.5C40.3,9.8,37.3,6.8,33.6,6.8z"/>
<g>
	<path class="st0" d="M62.7-33.5H59v-23.7h3.7V-33.5z M61-36.6h12.5v3.2H61V-36.6z"/>
	<path class="st0" d="M84.5-33.5v-23.7h3.7v23.8L84.5-33.5L84.5-33.5z M85.5-54.1v-3.1h14v3.1C99.5-54.1,85.5-54.1,85.5-54.1z
		 M85.6-33.5v-3.1h14.2v3.1H85.6z M86.6-44v-3.1h12.7v3.1H86.6z"/>
	<path class="st0" d="M117.1-57.2l8.8,19.7h0.2L126-47.8v-9.4h3.6v23.8h-5.4l-8.9-19.9H115l0.1,10.7v9.2h-3.6v-23.8H117.1z"/>
	<path class="st0" d="M142.3-33.5v-23.7h3.7v23.8L142.3-33.5L142.3-33.5z M144.8-33.5v-3.1h5.6c2,0,3.4-0.5,4.4-1.6
		c1-1.1,1.5-2.6,1.5-4.6V-48c0-2-0.5-3.5-1.5-4.6c-1-1.1-2.5-1.6-4.4-1.6h-5.7v-3.1h5.8c3.1,0,5.5,0.8,7.1,2.4
		c1.6,1.6,2.4,3.9,2.4,6.9v5.2c0,3-0.8,5.3-2.4,6.9c-1.6,1.6-4,2.4-7.1,2.4C150.5-33.5,144.8-33.5,144.8-33.5z"/>
	<path class="st0" d="M171.9-33.5v-23.7h3.7v23.8L171.9-33.5L171.9-33.5z M173-54.1v-3.1h14v3.1C187-54.1,173-54.1,173-54.1z
		 M173-33.5v-3.1h14.2v3.1H173z M174.1-44v-3.1h12.7v3.1H174.1z"/>
	<path class="st0" d="M205.8-33c-1.1,0-2.2-0.1-3.1-0.3c-1-0.2-1.8-0.4-2.6-0.7s-1.4-0.5-1.9-0.8l-0.4-3.7c1,0.5,2.1,1,3.4,1.5
		c1.3,0.4,2.7,0.6,4.2,0.6c1.7,0,3-0.3,3.8-0.9c0.8-0.6,1.2-1.4,1.2-2.6v-0.3c0-0.8-0.2-1.4-0.5-1.9s-0.9-0.9-1.7-1.3
		c-0.8-0.4-1.8-0.7-3.2-1c-1.8-0.4-3.2-0.9-4.3-1.5c-1.1-0.6-1.9-1.3-2.4-2.2s-0.7-2-0.7-3.3v-0.2c0-2,0.7-3.5,2-4.6
		c1.3-1.1,3.3-1.6,6-1.6c1.7,0,3.2,0.2,4.4,0.5c1.2,0.3,2.2,0.7,3,1.1l0.3,3.4c-0.9-0.5-1.9-1-3.1-1.3c-1.2-0.4-2.5-0.5-4-0.5
		c-1.2,0-2.1,0.1-2.8,0.4s-1.2,0.6-1.5,1.1s-0.5,1.1-0.5,1.7v0.1c0,0.7,0.2,1.3,0.5,1.8s0.9,0.9,1.6,1.3c0.8,0.4,1.9,0.8,3.4,1.1
		c1.7,0.4,3.1,0.9,4.2,1.5c1.1,0.5,1.8,1.2,2.3,2.1c0.5,0.9,0.7,2,0.7,3.4v0.4c0,2.2-0.7,3.9-2.1,5C210.8-33.6,208.6-33,205.8-33z"
		/>
	<path class="st0" d="M223.8-54.1v-3.1h17.7v3.1C241.5-54.1,223.8-54.1,223.8-54.1z M230.8-33.5v-23.1h3.7v23.1H230.8z"/>
</g>
<g>
	<path class="st0" d="M247.4-66v-0.9h5.2v0.9H247.4z M249.5-59.9v-6.8h1.1v6.8H249.5z"/>
	<path class="st0" d="M253.5-59.9l0.3-7h1.7l1.5,4.8h0.1l1.5-4.8h1.7l0.3,7h-1.1l-0.1-2.8l-0.1-3h-0.1l-1.6,5h-1.1l-1.6-5h-0.1
		l-0.1,3l-0.1,2.8H253.5z"/>
</g>
<g>
	<path class="st0" d="M48.2,11.6h3.5v17.2h5.8v2.7h-9.3V11.6z"/>
	<path class="st0" d="M63.8,31.8c-1.4,0-2.5-0.2-3.2-0.5c-0.7-0.3-1.2-0.8-1.5-1.4s-0.4-1.2-0.4-1.9v-7.9c0-0.7,0.1-1.3,0.4-1.9
		c0.3-0.6,0.8-1,1.5-1.4c0.7-0.3,1.8-0.5,3.3-0.5c1.3,0,2.3,0.2,3.1,0.5c0.8,0.3,1.3,0.8,1.6,1.3c0.3,0.6,0.5,1.2,0.5,1.9v3
		l-3.4,0.2v-2.6c0-0.5-0.1-0.9-0.4-1.2c-0.3-0.4-0.7-0.5-1.3-0.5c-0.6,0-1,0.2-1.3,0.5c-0.3,0.3-0.4,0.8-0.4,1.2v6.7
		c0,0.5,0.1,0.8,0.4,1.2s0.7,0.5,1.2,0.5c0.7,0,1.1-0.2,1.4-0.5c0.3-0.3,0.4-0.7,0.4-1.2v-1.1l3.4-0.3v1.9c0,0.8-0.2,1.4-0.5,2
		s-0.9,1.1-1.6,1.4S65.1,31.8,63.8,31.8z M59.1,24.7v-1.8H69v1.8H59.1z"/>
	<path class="st0" d="M71.3,16.4h2.8l0.3,1.6c0.3-0.6,0.8-1,1.4-1.3c0.6-0.3,1.3-0.5,2.2-0.5c1.1,0,2,0.3,2.6,0.8
		c0.6,0.5,0.9,1.4,0.9,2.5v12.1h-3.4v-11c0-0.6-0.1-1-0.4-1.3S77.1,19,76.5,19c-0.5,0-0.9,0.1-1.1,0.3c-0.3,0.2-0.5,0.5-0.6,1v11.3
		h-3.4V16.4z"/>
	<path class="st0" d="M86.9,31.6c-0.8,0-1.4-0.1-1.8-0.3s-0.7-0.5-0.9-1.1S84,29,84,27.9v-8c0-0.8,0.1-1.5,0.4-2
		c0.2-0.5,0.6-0.9,1.2-1.1c0.5-0.2,1.2-0.3,2.1-0.3h3.2v-5.1h3.4v20.2H86.9z M90.8,28.9v-9.7h-2.2c-0.5,0-0.8,0.1-1,0.3
		c-0.2,0.2-0.3,0.5-0.3,1v6.9c0,0.6,0.1,1,0.3,1.2c0.2,0.2,0.5,0.2,0.9,0.2H90.8z"/>
	<path class="st0" d="M101.7,31.8c-1.4,0-2.5-0.2-3.2-0.5c-0.7-0.3-1.2-0.8-1.5-1.4s-0.4-1.2-0.4-1.9v-7.9c0-0.7,0.1-1.3,0.4-1.9
		c0.3-0.6,0.8-1,1.5-1.4c0.7-0.3,1.8-0.5,3.3-0.5c1.3,0,2.3,0.2,3.1,0.5c0.8,0.3,1.3,0.8,1.6,1.3c0.3,0.6,0.5,1.2,0.5,1.9v3
		l-3.4,0.2v-2.6c0-0.5-0.1-0.9-0.4-1.2c-0.3-0.4-0.7-0.5-1.3-0.5c-0.6,0-1,0.2-1.3,0.5c-0.3,0.3-0.4,0.8-0.4,1.2v6.7
		c0,0.5,0.1,0.8,0.4,1.2s0.7,0.5,1.2,0.5c0.7,0,1.1-0.2,1.4-0.5c0.3-0.3,0.4-0.7,0.4-1.2v-1.1l3.4-0.3v1.9c0,0.8-0.2,1.4-0.5,2
		s-0.9,1.1-1.6,1.4C104,31.6,103,31.8,101.7,31.8z M97,24.7v-1.8h9.9v1.8H97z"/>
	<path class="st0" d="M113.4,31.8c-1.6,0-2.8-0.3-3.4-1s-1-1.5-1-2.7v-2l3.1-0.4V28c0,0.2,0,0.5,0.1,0.7s0.2,0.4,0.4,0.6
		s0.5,0.2,1,0.2c0.5,0,0.9-0.1,1.1-0.3s0.4-0.6,0.4-1.2c0-0.8-0.1-1.4-0.2-1.8s-0.4-0.7-1-1c-0.2-0.1-0.4-0.2-0.6-0.3
		c-0.2-0.1-0.5-0.2-0.8-0.4s-0.5-0.3-0.7-0.4s-0.4-0.2-0.6-0.3c-0.6-0.4-1.1-0.7-1.5-1.1c-0.3-0.3-0.5-0.7-0.6-1.1s-0.2-0.8-0.2-1.2
		V20c0-1.3,0.4-2.2,1.1-2.8c0.8-0.6,1.9-0.9,3.6-0.9c1.6,0,2.8,0.3,3.5,0.8c0.7,0.5,1,1.4,1,2.6v1.8l-3.1,0.4V20
		c0-0.5-0.1-0.9-0.4-1.1s-0.6-0.3-1.2-0.3c-0.4,0-0.8,0.1-1,0.2s-0.4,0.3-0.4,0.5s-0.1,0.5-0.1,0.7c0,0.7,0.1,1.1,0.2,1.4
		s0.3,0.5,0.7,0.7c0.2,0.1,0.4,0.2,0.7,0.4c0.3,0.2,0.7,0.3,1.1,0.5c0.4,0.2,0.9,0.4,1.4,0.7c0.8,0.4,1.4,0.9,1.7,1.4
		c0.3,0.5,0.5,1.3,0.5,2.3v0.5c0,1.3-0.3,2.3-1,3S115.2,31.8,113.4,31.8z"/>
	<path class="st0" d="M124.9,31.6c-0.8,0-1.5-0.1-2.1-0.2s-1.1-0.5-1.4-0.9s-0.5-1.2-0.5-2.1v-9.3h-1.1v-2.6h1.4l0.6-2.8h2.5v2.8
		h2.8l-0.8,2.6h-2v7.8c0,0.8,0.1,1.3,0.4,1.6s0.7,0.4,1.3,0.4h1.2v2.7H124.9z"/>
</g>
</svg>
